# xmcd
#
# Track frame offsets:
#       150
#       18885
#       33424
#       56159
#       76185
#       94821
#       106019
#       129799
#       156972
#       187881
#
# Disc length: 2760 seconds
#
# Revision: 0
# Processed by: cddbd v1.5.2PL0 Copyright (c) Steve Scherf et al.
# Submitted via: WaveLab 4.01
#
DISCID=6b0ac60a
DTITLE=Evestus - Sacrifice (Single)
DYEAR=2008
DGENRE=
TTITLE0=Sacrifice (Radio Edit)
TTITLE1=Sacrifice (Apocryphal Superorganism "Ohverdus" mix)
TTITLE2=Sacrifice (SunStream Jumpstyle mix)
TTITLE3=Sacrifice (Team Cybergeist Remix)
TTITLE4=Sacrifice (Sugar Creek Maakivi Miks)
TTITLE5=Sacrifice (Evil DJ Magdelena Sacrificial Moo mix)
TTITLE6=Sacrifice (Kirdec Remix)
TTITLE7=Sacrifice (Nostalgic remix by Evestus)
TTITLE8=Sacrifice (George "DzDz" Dramatic mix)
TTITLE9=Everybody Dies
EXTD=
EXTT0=
EXTT1=
EXTT2=
EXTT3=
EXTT4=
EXTT5=
EXTT6=
EXTT7=
EXTT8=
EXTT9=
PLAYORDER=
